<?xml version="1.0" standalone="yes"?>
<svg xmlns="http://www.w3.org/2000/svg" width="481" height="481">
<path style="fill:#f7f7f6; stroke:none;" d="M0 0L0 481L481 481L481 0L0 0z"/>
<path style="fill:#a2b6b5; stroke:none;" d="M274 34L273 36L274 34z"/>
<path style="fill:#d6a314; stroke:none;" d="M274 35C267.401 55.8229 255.988 68.2338 242.375 85C217.02 116.228 185.592 142.173 159.754 173C140.418 196.069 122.383 228.981 134 260L135 260C135.237 231.413 156.119 208.263 174.985 189.001C198.741 164.747 222.395 140.229 245.079 114.999C262.028 96.147 275 78.0757 275 52C275 46.6497 276.085 39.9691 274 35z"/>
<path style="fill:#a2b6b5; stroke:none;" d="M272 41L273 42L272 41M274 65L275 66L274 65M256 69L257 70L256 69M255 70L256 71L255 70M273 70L274 71L273 70M271 76L272 77L271 76M274 83L273 85L274 83z"/>
<path style="fill:#d6a314; stroke:none;" d="M274 84C252.201 148.27 181.633 182.535 148.012 240C138.65 256.002 134.818 273.625 137.921 292C139.126 299.137 141.399 308.107 148 312C138.037 268.539 173.177 239.507 200.985 211C215.983 195.626 230.365 179.617 245.036 164C262.28 145.646 275 126.756 275 101C275 95.6497 276.085 88.969 274 84z"/>
<path style="fill:#a2b6b5; stroke:none;" d="M265 88L266 89L265 88M270 96L271 97L270 96M259 97L260 98L259 97M226 103L227 104L226 103M225 104L226 105L225 104M224 105L225 106L224 105M223 106L224 107L223 106M222 107L223 108L222 107M250 108L251 109L250 108M274 114L275 115L274 114M273 119L274 120L273 119M238 122L239 123L238 122M235 125L236 126L235 125M271 125L272 126L271 125M249 126L250 127L249 126M201 129L202 130L201 129M198 132L199 133L198 132M274 132L273 134L274 132M197 133L198 134L197 133z"/>
<path style="fill:#d6a314; stroke:none;" d="M274 133C261.438 172.641 224.898 204.091 196 233C182.613 246.392 167.821 259.855 159.248 277C149.316 296.866 146.288 337.547 176 342L176 341C152.556 322.976 171.826 291.9 186.425 275C212.219 245.142 247.434 220.035 266.688 185C273.923 171.836 280.161 147.682 274 133z"/>
<path style="fill:#a2b6b5; stroke:none;" d="M194 136L195 137L194 136M240 136L241 137L240 136M265 137L266 138L265 137M272 139L273 140L272 139M269 148L270 149L269 148M212 149L213 150L212 149M210 151L211 152L210 151M209 152L210 153L209 152M208 153L209 154L208 153M224 154L225 155L224 154M265 155L266 156L265 155M222 156L223 157L222 156M221 157L222 158L221 157M173 158L174 159L173 158M263 158L264 159L263 158M172 159L173 160L172 159M219 159L220 160L219 159M171 160L172 161L171 160M260 162L261 163L260 162M274 163L275 164L274 163z"/>
<path style="fill:#d6a314; stroke:none;" d="M305 166L305 167C322.039 180.1 315.99 202.212 306.046 218C289.835 243.739 261.291 260.185 251.079 290C246.873 302.277 249 317.174 249 330L250 330C259.53 283.953 312.205 264.488 325.971 221C332.305 200.992 329.435 171.111 305 166z"/>
<path style="fill:#a2b6b5; stroke:none;" d="M307 166L308 167L307 166M256 167L257 168L256 167M273 168L274 169L273 168M307 168L308 169L307 168M239 170L240 171L239 170M311 172L312 173L311 172M159 173L160 174L159 173M251 173L252 174L251 173M319 173L320 174L319 173M232 177L233 178L232 177M155 178L156 179L155 178M184 178L185 179L184 178M154 179L155 180L154 179M183 179L184 180L183 179M269 179L270 180L269 179M198 181L199 182L198 181M180 182L181 183L180 182M315 182L316 183L315 182M196 183L197 184L196 183M242 183L243 184L242 183M325 183L326 184L325 183M195 184L196 185L195 184M241 184L242 185L241 184M240 186L241 187L240 186M148 187L149 188L148 187M327 189L328 190L327 189M144 193L145 194L144 193M315 193L316 194L315 193M259 195L260 196L259 195M328 195L329 196L328 195z"/>
<path style="fill:#d6a314; stroke:none;" d="M333 196C334.268 204.621 336.964 212.084 335.561 221C328.541 265.597 278.118 290.838 256.873 328C247.409 344.554 249 361.615 249 380L250 380C252.757 361.332 265.737 346.655 277.715 333C298.793 308.971 323.889 288.408 337.905 259C345.885 242.257 349.643 209.062 333 196z"/>
<path style="fill:#a2b6b5; stroke:none;" d="M166 197L167 198L166 197M230 197L231 198L230 197M229 198L230 199L229 198M228 199L229 200L228 199M256 199L257 200L256 199M314 199L315 200L314 199M140 200L141 201L140 200M209 201L210 202L209 201M139 202L140 203L139 202M208 202L209 203L208 202M225 202L226 203L225 202M338 202L339 203L338 202M207 203L208 204L207 203M206 204L207 205L206 204M252 204L253 205L252 204M159 205L160 206L159 205M251 205L252 206L251 205M312 205L313 206L312 205M335 206L336 207L335 206M172 208L173 209L172 208M328 208L329 209L328 208M309 212L310 213L309 212M308 214L309 215L308 214M327 215L328 216L327 215M241 216L242 217L241 216M164 217L165 218L164 217M343 218L344 219L343 218M326 219L327 220L326 219M147 221L148 222L147 221M335 221L336 222L335 221M303 222L304 223L303 222M325 222L326 223L325 222M132 224L133 225L132 224M204 224L205 225L204 224M203 225L204 226L203 225M324 225L325 226L324 225M144 226L145 227L144 226M185 226L186 227L185 226M202 226L203 227L202 226M334 226L335 227L334 226M156 227L157 228L156 227M201 227L202 228L201 227M323 227L324 228L323 227M344 227L344 233L345 233L344 227M200 228L201 229L200 228M131 230L132 231L131 230M181 230L182 231L181 230M295 232L296 233L295 232M332 232L333 233L332 232M320 233L321 234L320 233M140 234L141 235L140 234M319 235L320 236L319 235M138 239L139 240L138 239M148 239L149 240L148 239M329 239L330 240L329 239M315 241L316 242L315 241M328 241L329 242L328 241M137 242L138 243L137 242M169 243L170 244L169 243M214 245L215 246L214 245M342 245L343 246L342 245M212 247L213 248L212 247M131 248L132 249L131 248M341 249L342 250L341 249z"/>
<path style="fill:#d6a314; stroke:none;" d="M346 249C345.668 289.134 305.227 320.535 279.965 347.004C270.196 357.239 258.083 370.12 254 384C260.102 384 269.444 385.75 275 382.972C284.086 378.429 291.613 367.04 298.464 359.715C317.069 339.822 338.152 321.034 345.999 294C349.471 282.04 354.798 259.749 346 249z"/>
<path style="fill:#a2b6b5; stroke:none;" d="M347 249L348 250L347 249M209 250L210 251L209 250M178 251L179 252L178 251M177 252L178 253L177 252M306 252L307 253L306 252M141 253L142 254L141 253M161 253L162 254L161 253M176 253L177 254L176 253M305 253L306 254L305 253M348 253L349 254L348 253M132 255L133 256L132 255M273 255L274 256L273 255M319 255L320 256L319 255M140 256L141 257L140 256M272 256L273 257L272 256M345 256L346 257L345 256M133 259L134 260L133 259M337 259L338 260L337 259M169 261L170 262L169 261M336 261L337 262L336 261M344 261L345 262L344 261M267 262L268 263L267 262M334 265L335 266L334 265M310 266L311 267L310 266M137 267L138 268L137 267M152 267L153 268L152 267M309 267L310 268L309 267M341 271L342 272L341 271M188 272L189 273L188 272M187 273L188 274L187 273M160 274L161 275L160 274M186 274L187 275L186 274M284 275L285 276L284 275M148 276L149 277L148 276M159 276L160 277L159 276M283 276L284 277L283 276M136 278L137 279L136 278M158 278L159 279L158 278M325 279L326 280L325 279M157 280L158 281L157 280M337 280L338 281L337 280M180 281L181 282L180 281M146 282L147 283L146 282M348 284L349 285L348 284M155 285L156 286L155 285M177 285L178 286L177 285M252 286L253 287L252 286M291 286L292 287L291 286M319 287L320 288L319 287M175 288L176 289L175 288M332 288L333 289L332 288M347 288L348 289L347 288M137 289L138 290L137 289M288 289L289 290L288 289M286 291L287 292L286 291M330 291L331 292L330 291M346 292L347 293L346 292M172 293L173 294L172 293M284 293L285 294L284 293M313 294L314 295L313 294M345 295L346 296L345 295M152 299L153 300L152 299M140 301L141 302L140 301M145 302L146 303L145 302M168 302L169 303L168 302M248 303C248 309.619 244.925 327.565 250 332L248 303M275 303L276 304L275 303M303 305L304 306L303 305M319 305L320 306L319 305M142 306L143 307L142 306M302 306L303 307L302 306M318 306L319 307L318 306M258 307L259 308L258 307M301 307L302 308L301 307M166 308L167 309L166 308M300 308L301 309L300 308M144 309L145 310L144 309M145 310L146 311L145 310M311 314L312 315L311 314M309 316L310 317L309 316M153 318L154 319L153 318M331 322L332 323L331 322M165 325L166 326L165 325M328 326L329 327L328 326M280 329L281 330L280 329M279 330L280 331L279 330M324 331L325 332L324 331M161 334L162 335L161 334M163 336L164 337L163 336M289 337L290 338L289 337M272 338L273 339L272 338M288 338L289 339L288 338M271 339L272 340L271 339M286 340L287 341L286 340M176 341L177 342L176 341M250 342L251 343L250 342M261 352L262 353L261 352M273 354L274 355L273 354M259 355L260 356L259 355M190 356L190 357L207 357L190 356M181 357L181 358L185 358L181 357z"/>
<path style="fill:#5e8584; stroke:none;" d="M185 357L185 358L189 358L185 357z"/>
<path style="fill:#175351; stroke:none;" d="M22 451C71.7051 451 121.786 434.276 171 427.576C192.372 424.667 220.159 427.622 230 450L231 450L231 403L206 403L206 384L231 384C231 361.924 216.971 356.968 197 357C168.157 357.046 138.234 365.391 110 370.803C99.6791 372.782 81.7569 372.549 73.1736 378.728C66.2594 383.705 61.491 394.126 56.5787 401C44.8741 417.38 32.5696 433.872 22 451z"/>
<path style="fill:#5e8584; stroke:none;" d="M208 357L208 358L211 358L208 357z"/>
<path style="fill:#a2b6b5; stroke:none;" d="M211 357L211 358L214 358L211 357M174.667 358.333L175.333 358.667L174.667 358.333z"/>
<path style="fill:#5e8584; stroke:none;" d="M176 358L176 359L179 359L176 358M215 358L216 359L215 358z"/>
<path style="fill:#a2b6b5; stroke:none;" d="M216 358L217 359L216 358M299 358L300 359L299 358M167 359L167 360L170 360L167 359z"/>
<path style="fill:#5e8584; stroke:none;" d="M170.667 359.333L171.333 359.667L170.667 359.333M218 359L219 360L218 359z"/>
<path style="fill:#a2b6b5; stroke:none;" d="M219 359L220 360L219 359M298 359L299 360L298 359M162 360L162 361L165 361L162 360z"/>
<path style="fill:#5e8584; stroke:none;" d="M165.667 360.333L166.333 360.667L165.667 360.333M220 360L221 361L220 360z"/>
<path style="fill:#a2b6b5; stroke:none;" d="M221 360L222 361L221 360M256 360L257 361L256 360M312 360L304 369L312 360z"/>
<path style="fill:#5e8584; stroke:none;" d="M295 379L316 361C309.21 359.638 298.609 373.876 295 379z"/>
<path style="fill:#a2b6b5; stroke:none;" d="M316.667 360.333L317.333 360.667L316.667 360.333M157.667 361.333L158.333 361.667L157.667 361.333z"/>
<path style="fill:#5e8584; stroke:none;" d="M159 361L160 362L159 361M222 361L223 362L222 361z"/>
<path style="fill:#a2b6b5; stroke:none;" d="M223 361L224 362L223 361M296 361L297 362L296 361z"/>
<path style="fill:#175351; stroke:none;" d="M249 450L250 450C265.442 424.886 292.661 424.76 319 429.08C364.912 436.611 412.406 451 459 451C448.411 433.84 436.145 417.406 424.421 401C419.542 394.171 414.744 383.62 407.826 378.738C399.349 372.756 383.017 373.46 373 371.339C359.438 368.467 345.682 366.038 332 363.753C326.916 362.904 320.1 360.181 315 361.333C306.95 363.151 298.623 375.313 293.004 381C272.388 401.864 255.908 421.315 249 450z"/>
<path style="fill:#5e8584; stroke:none;" d="M320 361L321 362L320 361z"/>
<path style="fill:#a2b6b5; stroke:none;" d="M321.667 361.333L322.333 361.667L321.667 361.333M151 362L151 363L154 363L151 362z"/>
<path style="fill:#5e8584; stroke:none;" d="M154 362L155 363L154 362z"/>
<path style="fill:#a2b6b5; stroke:none;" d="M224 362L225 363L224 362M295 362L296 363L295 362z"/>
<path style="fill:#5e8584; stroke:none;" d="M324.667 362.333L325.333 362.667L324.667 362.333z"/>
<path style="fill:#a2b6b5; stroke:none;" d="M326 362L326 363L329 363L326 362M146.667 363.333L147.333 363.667L146.667 363.333z"/>
<path style="fill:#5e8584; stroke:none;" d="M148 363L148 364L151 364L148 363M225 363L226 364L225 363M330.667 363.333L331.333 363.667L330.667 363.333z"/>
<path style="fill:#a2b6b5; stroke:none;" d="M332.667 363.333L333.333 363.667L332.667 363.333M141.667 364.333L142.333 364.667L141.667 364.333z"/>
<path style="fill:#5e8584; stroke:none;" d="M143 364L144 365L143 364M226 364L227 365L226 364z"/>
<path style="fill:#a2b6b5; stroke:none;" d="M254 364L255 365L254 364z"/>
<path style="fill:#5e8584; stroke:none;" d="M336.667 364.333L337.333 364.667L336.667 364.333z"/>
<path style="fill:#a2b6b5; stroke:none;" d="M338 364L339 365L338 364M135 365L135 366L138 366L135 365z"/>
<path style="fill:#5e8584; stroke:none;" d="M138 365L139 366L138 365z"/>
<path style="fill:#a2b6b5; stroke:none;" d="M227 365L228 366L227 365z"/>
<path style="fill:#5e8584; stroke:none;" d="M341.667 365.333L342.333 365.667L341.667 365.333z"/>
<path style="fill:#a2b6b5; stroke:none;" d="M343 365L343 366L346 366L343 365M130.667 366.333L131.333 366.667L130.667 366.333z"/>
<path style="fill:#5e8584; stroke:none;" d="M132.667 366.333L133.333 366.667L132.667 366.333z"/>
<path style="fill:#a2b6b5; stroke:none;" d="M228 366L230 371L231 371L228 366z"/>
<path style="fill:#5e8584; stroke:none;" d="M346 366L346 367L349 367L346 366z"/>
<path style="fill:#a2b6b5; stroke:none;" d="M349 366L350 367L349 366M124.667 367.333L125.333 367.667L124.667 367.333z"/>
<path style="fill:#5e8584; stroke:none;" d="M126.667 367.333L127.333 367.667L126.667 367.333M228 367L229 368L228 367M353 367L354 368L353 367z"/>
<path style="fill:#a2b6b5; stroke:none;" d="M354.667 367.333L355.333 367.667L354.667 367.333M118 368L118 369L121 369L118 368z"/>
<path style="fill:#5e8584; stroke:none;" d="M121.667 368.333L122.333 368.667L121.667 368.333M357.667 368.333L358.333 368.667L357.667 368.333z"/>
<path style="fill:#a2b6b5; stroke:none;" d="M359 368L359 369L362 369L359 368M114.667 369.333L115.333 369.667L114.667 369.333z"/>
<path style="fill:#5e8584; stroke:none;" d="M116.667 369.333L117.333 369.667L116.667 369.333M229 369L230 370L229 369M362 369L362 370L365 370L362 369z"/>
<path style="fill:#a2b6b5; stroke:none;" d="M365.667 369.333L366.333 369.667L365.667 369.333M108.667 370.333L109.333 370.667L108.667 370.333z"/>
<path style="fill:#5e8584; stroke:none;" d="M110.667 370.333L111.333 370.667L110.667 370.333z"/>
<path style="fill:#a2b6b5; stroke:none;" d="M302 370L303 371L302 370z"/>
<path style="fill:#5e8584; stroke:none;" d="M369 370L370 371L369 370z"/>
<path style="fill:#a2b6b5; stroke:none;" d="M370.667 370.333L371.333 370.667L370.667 370.333M102 371L102 372L105 372L102 371z"/>
<path style="fill:#5e8584; stroke:none;" d="M105.667 371.333L106.333 371.667L105.667 371.333M230.333 371.667L230.667 372.333L230.333 371.667z"/>
<path style="fill:#a2b6b5; stroke:none;" d="M301 371L302 372L301 371z"/>
<path style="fill:#5e8584; stroke:none;" d="M373 371L373 372L376 372L373 371z"/>
<path style="fill:#a2b6b5; stroke:none;" d="M376.667 371.333L377.333 371.667L376.667 371.333M98 372L99 373L98 372z"/>
<path style="fill:#5e8584; stroke:none;" d="M99.6667 372.333L100.333 372.667L99.6667 372.333z"/>
<path style="fill:#a2b6b5; stroke:none;" d="M231 372L231 375L232 375L231 372z"/>
<path style="fill:#5e8584; stroke:none;" d="M379 372L379 373L382 373L379 372z"/>
<path style="fill:#a2b6b5; stroke:none;" d="M382 372L383 373L382 372M92.6667 373.333L93.3333 373.667L92.6667 373.333z"/>
<path style="fill:#5e8584; stroke:none;" d="M94.6667 373.333L95.3333 373.667L94.6667 373.333M385.667 373.333L386.333 373.667L385.667 373.333z"/>
<path style="fill:#a2b6b5; stroke:none;" d="M387.667 373.333L388.333 373.667L387.667 373.333M86 374L86 375L89 375L86 374z"/>
<path style="fill:#5e8584; stroke:none;" d="M89.6667 374.333L90.3333 374.667L89.6667 374.333M390.667 374.333L391.333 374.667L390.667 374.333z"/>
<path style="fill:#a2b6b5; stroke:none;" d="M392 374L392 375L395 375L392 374M81.6667 375.333L82.3333 375.667L81.6667 375.333z"/>
<path style="fill:#5e8584; stroke:none;" d="M83.6667 375.333L84.3333 375.667L83.6667 375.333M231 375L231 384L232 384L231 375M396.667 375.333L397.333 375.667L396.667 375.333z"/>
<path style="fill:#a2b6b5; stroke:none;" d="M398.667 375.333L399.333 375.667L398.667 375.333M75 376L75 377L78 377L75 376z"/>
<path style="fill:#5e8584; stroke:none;" d="M78 376L79 377L78 376z"/>
<path style="fill:#a2b6b5; stroke:none;" d="M250 376L251 377L250 376M257 376L258 377L257 376z"/>
<path style="fill:#5e8584; stroke:none;" d="M401.667 376.333L402.333 376.667L401.667 376.333z"/>
<path style="fill:#a2b6b5; stroke:none;" d="M403 376L403 377L406 377L403 376M72 377L71 379L72 377z"/>
<path style="fill:#5e8584; stroke:none;" d="M73.6667 377.333L74.3333 377.667L73.6667 377.333M406 377L406 378L410 380L406 377z"/>
<path style="fill:#a2b6b5; stroke:none;" d="M408 377L409 378L408 377z"/>
<path style="fill:#5e8584; stroke:none;" d="M72 378L73 379L72 378z"/>
<path style="fill:#a2b6b5; stroke:none;" d="M232 378L232 384L233 384L232 378M409 378L410 379L409 378z"/>
<path style="fill:#5e8584; stroke:none;" d="M71 379L72 380L71 379z"/>
<path style="fill:#a2b6b5; stroke:none;" d="M294 379L295 380L294 379M70 380L69 382L70 380M249 380L250 381L249 380M293 380L294 381L293 380M410 380L412 382L410 380z"/>
<path style="fill:#5e8584; stroke:none;" d="M70 381L71 382L70 381z"/>
<path style="fill:#a2b6b5; stroke:none;" d="M292 381L293 382L292 381z"/>
<path style="fill:#5e8584; stroke:none;" d="M410 381L411 382L410 381M69 382L70 383L69 382z"/>
<path style="fill:#a2b6b5; stroke:none;" d="M291 382L292 383L291 382z"/>
<path style="fill:#5e8584; stroke:none;" d="M411 382L412 383L411 382z"/>
<path style="fill:#a2b6b5; stroke:none;" d="M68 383L69 384L68 383M290 383L291 384L290 383M412 383L413 384L412 383M67 384L68 385L67 384z"/>
<path style="fill:#5e8584; stroke:none;" d="M206 384C206 389.091 203.978 399.486 208 403L206 384z"/>
<path style="fill:#a2b6b5; stroke:none;" d="M289 384L290 385L289 384M413 384L414 385L413 384z"/>
<path style="fill:#5e8584; stroke:none;" d="M67 385L68 386L67 385z"/>
<path style="fill:#a2b6b5; stroke:none;" d="M288 385L289 386L288 385z"/>
<path style="fill:#5e8584; stroke:none;" d="M413 385L414 386L413 385z"/>
<path style="fill:#a2b6b5; stroke:none;" d="M66 386L67 387L66 386M287 386L288 387L287 386M414 386L415 387L414 386M65 387L64 389L65 387M286 387L281 393L286 387M415 387L417 389L415 387z"/>
<path style="fill:#5e8584; stroke:none;" d="M65 388L66 389L65 388M286 388L287 389L286 388M415 388L416 389L415 388M64 389L65 390L64 389M285 389L286 390L285 389M416 389L417 390L416 389z"/>
<path style="fill:#a2b6b5; stroke:none;" d="M63 390L62 392L63 390z"/>
<path style="fill:#5e8584; stroke:none;" d="M284 390L285 391L284 390z"/>
<path style="fill:#a2b6b5; stroke:none;" d="M417 390L419 392L417 390z"/>
<path style="fill:#5e8584; stroke:none;" d="M63 391L64 392L63 391M283 391L284 392L283 391M417 391L418 392L417 391M62 392L63 393L62 392M282 392L283 393L282 392M418 392L419 393L418 392z"/>
<path style="fill:#a2b6b5; stroke:none;" d="M61 393L60 395L61 393z"/>
<path style="fill:#5e8584; stroke:none;" d="M281 393L282 394L281 393z"/>
<path style="fill:#a2b6b5; stroke:none;" d="M419 393L421 395L419 393z"/>
<path style="fill:#5e8584; stroke:none;" d="M61 394L62 395L61 394M280 394L281 395L280 394M419 394L420 395L419 394M60 395L61 396L60 395M279 395L280 396L279 395M420 395L421 396L420 395M59 396L60 397L59 396M278 396L279 397L278 396M421 396L422 397L421 396z"/>
<path style="fill:#a2b6b5; stroke:none;" d="M58 397L57 399L58 397M277 397L278 398L277 397M422 397L424 399L422 397z"/>
<path style="fill:#5e8584; stroke:none;" d="M58 398L59 399L58 398z"/>
<path style="fill:#a2b6b5; stroke:none;" d="M276 398L277 399L276 398z"/>
<path style="fill:#5e8584; stroke:none;" d="M422 398L423 399L422 398M57 399L58 400L57 399z"/>
<path style="fill:#a2b6b5; stroke:none;" d="M275 399L276 400L275 399z"/>
<path style="fill:#5e8584; stroke:none;" d="M423 399L424 400L423 399z"/>
<path style="fill:#a2b6b5; stroke:none;" d="M56 400L55 402L56 400M274 400L272 403L274 400M424 400L426 402L424 400z"/>
<path style="fill:#5e8584; stroke:none;" d="M56 401L57 402L56 401M274 401L275 402L274 401M424 401L425 402L424 401M55 402L56 403L55 402z"/>
<path style="fill:#a2b6b5; stroke:none;" d="M208 402L208 403L232 403L232 436L230 451C234.232 451.698 233 443.859 233 441C233 431.265 236.575 413.034 232.523 404.218C230.327 399.44 212.693 402 208 402M250 429L249 403L259 403C245.07 397.155 243.611 423.417 250 429z"/>
<path style="fill:#5e8584; stroke:none;" d="M273 402L274 403L273 402M425 402L426 403L425 402z"/>
<path style="fill:#a2b6b5; stroke:none;" d="M54 403L55 404L54 403z"/>
<path style="fill:#5e8584; stroke:none;" d="M231 403L230 451L232 439L231 403z"/>
<path style="fill:#d6a314; stroke:none;" d="M249 403L249 428L250 428L260 403L249 403z"/>
<path style="fill:#5e8584; stroke:none;" d="M272 403L273 404L272 403z"/>
<path style="fill:#a2b6b5; stroke:none;" d="M426 403L427 404L426 403M53 404L54 405L53 404z"/>
<path style="fill:#5e8584; stroke:none;" d="M271 404L272 405L271 404z"/>
<path style="fill:#a2b6b5; stroke:none;" d="M427 404L428 405L427 404z"/>
<path style="fill:#5e8584; stroke:none;" d="M53 405L54 406L53 405M270 405L271 406L270 405M427 405L428 406L427 405z"/>
<path style="fill:#a2b6b5; stroke:none;" d="M52 406L53 407L52 406M269 406L270 407L269 406M428 406L429 407L428 406M51 407L52 408L51 407M268 407L267 409L268 407M429 407L431 409L429 407z"/>
<path style="fill:#5e8584; stroke:none;" d="M51 408L52 409L51 408M268 408L269 409L268 408M429 408L430 409L429 408z"/>
<path style="fill:#a2b6b5; stroke:none;" d="M50 409L51 410L50 409z"/>
<path style="fill:#5e8584; stroke:none;" d="M267 409L268 410L267 409M430 409L431 410L430 409z"/>
<path style="fill:#a2b6b5; stroke:none;" d="M49 410L48 412L49 410z"/>
<path style="fill:#5e8584; stroke:none;" d="M266 410L267 411L266 410z"/>
<path style="fill:#a2b6b5; stroke:none;" d="M431 410L433 412L431 410z"/>
<path style="fill:#5e8584; stroke:none;" d="M49 411L50 412L49 411z"/>
<path style="fill:#a2b6b5; stroke:none;" d="M265 411L266 412L265 411z"/>
<path style="fill:#5e8584; stroke:none;" d="M431 411L432 412L431 411M48 412L49 413L48 412z"/>
<path style="fill:#a2b6b5; stroke:none;" d="M264 412L263 414L264 412z"/>
<path style="fill:#5e8584; stroke:none;" d="M432 412L433 413L432 412z"/>
<path style="fill:#a2b6b5; stroke:none;" d="M47 413L46 415L47 413z"/>
<path style="fill:#5e8584; stroke:none;" d="M264 413L265 414L264 413z"/>
<path style="fill:#a2b6b5; stroke:none;" d="M433 413L435 415L433 413z"/>
<path style="fill:#5e8584; stroke:none;" d="M47 414L48 415L47 414M263 414L264 415L263 414M433 414L434 415L433 414M46 415L47 416L46 415z"/>
<path style="fill:#a2b6b5; stroke:none;" d="M262 415L263 416L262 415z"/>
<path style="fill:#5e8584; stroke:none;" d="M434 415L435 416L434 415z"/>
<path style="fill:#a2b6b5; stroke:none;" d="M45 416L43 420L44 420L45 416M261 416L262 417L261 416z"/>
<path style="fill:#5e8584; stroke:none;" d="M435 416L436 417L435 416M45 417L46 418L45 417M261 417L262 418L261 417z"/>
<path style="fill:#a2b6b5; stroke:none;" d="M436 417L438 419L436 417z"/>
<path style="fill:#5e8584; stroke:none;" d="M44 418L45 419L44 418z"/>
<path style="fill:#a2b6b5; stroke:none;" d="M260 418L259 420L260 418z"/>
<path style="fill:#5e8584; stroke:none;" d="M436 418L437 419L436 418M260 419L261 420L260 419M437 419L438 420L437 419z"/>
<path style="fill:#a2b6b5; stroke:none;" d="M42 420L41 422L42 420M251 420L252 421L251 420z"/>
<path style="fill:#5e8584; stroke:none;" d="M259 420L260 421L259 420z"/>
<path style="fill:#a2b6b5; stroke:none;" d="M438 420L440 422L438 420z"/>
<path style="fill:#5e8584; stroke:none;" d="M42 421L43 422L42 421M258 421L257 424L258 421M438 421L439 422L438 421M41 422L42 423L41 422z"/>
<path style="fill:#a2b6b5; stroke:none;" d="M257 422L258 423L257 422z"/>
<path style="fill:#5e8584; stroke:none;" d="M439 422L440 423L439 422z"/>
<path style="fill:#a2b6b5; stroke:none;" d="M40 423L39 425L40 423M440 423L441 424L440 423z"/>
<path style="fill:#5e8584; stroke:none;" d="M40 424L41 425L40 424z"/>
<path style="fill:#a2b6b5; stroke:none;" d="M256 424L257 425L256 424M441 424L442 425L441 424z"/>
<path style="fill:#5e8584; stroke:none;" d="M39 425L40 426L39 425M256 425L257 426L256 425M441 425L442 426L441 425z"/>
<path style="fill:#a2b6b5; stroke:none;" d="M38 426L37 428L38 426M255 426L256 427L255 426M442 426L443 427L442 426z"/>
<path style="fill:#5e8584; stroke:none;" d="M38 427L39 428L38 427M171 427L171 428L176 428L171 427z"/>
<path style="fill:#a2b6b5; stroke:none;" d="M176 427L176 428L183 428L176 427M187 427L187 428L194 428L187 427z"/>
<path style="fill:#5e8584; stroke:none;" d="M194 427L194 428L198 428L194 427M255 427L256 428L255 427M282 427L282 428L287 428L282 427z"/>
<path style="fill:#a2b6b5; stroke:none;" d="M287 427L287 428L293 428L287 427M295 427L295 428L303 428L295 427z"/>
<path style="fill:#5e8584; stroke:none;" d="M303 427L303 428L308 428L303 427z"/>
<path style="fill:#a2b6b5; stroke:none;" d="M443 427L444 428L443 427z"/>
<path style="fill:#5e8584; stroke:none;" d="M37 428L38 429L37 428M163.667 428.333L164.333 428.667L163.667 428.333z"/>
<path style="fill:#a2b6b5; stroke:none;" d="M165 428L165 429L171 429L165 428M198 428L198 429L201 429L198 428z"/>
<path style="fill:#5e8584; stroke:none;" d="M201.667 428.333L202.333 428.667L201.667 428.333z"/>
<path style="fill:#a2b6b5; stroke:none;" d="M254 428L255 429L254 428z"/>
<path style="fill:#5e8584; stroke:none;" d="M278 428L279 429L278 428z"/>
<path style="fill:#a2b6b5; stroke:none;" d="M279 428L279 429L282 429L279 428M309 428L309 429L313 429L309 428z"/>
<path style="fill:#5e8584; stroke:none;" d="M313 428L313 429L316 429L313 428M443 428L444 429L443 428z"/>
<path style="fill:#a2b6b5; stroke:none;" d="M36 429L37 430L36 429z"/>
<path style="fill:#5e8584; stroke:none;" d="M157.667 429.333L158.333 429.667L157.667 429.333z"/>
<path style="fill:#a2b6b5; stroke:none;" d="M159.667 429.333L160.333 429.667L159.667 429.333M204 429L205 430L204 429z"/>
<path style="fill:#5e8584; stroke:none;" d="M205 429L206 430L205 429M254 429L255 430L254 429M274 429L275 430L274 429z"/>
<path style="fill:#a2b6b5; stroke:none;" d="M275 429L276 430L275 429M318.667 429.333L319.333 429.667L318.667 429.333z"/>
<path style="fill:#5e8584; stroke:none;" d="M320.667 429.333L321.333 429.667L320.667 429.333M444 429L445 430L444 429z"/>
<path style="fill:#a2b6b5; stroke:none;" d="M35 430L34 433L35 433L35 430z"/>
<path style="fill:#5e8584; stroke:none;" d="M150.667 430.333L151.333 430.667L150.667 430.333z"/>
<path style="fill:#a2b6b5; stroke:none;" d="M152 430L152 431L155 431L152 430M207 430L208 431L207 430z"/>
<path style="fill:#5e8584; stroke:none;" d="M208.667 430.333L209.333 430.667L208.667 430.333z"/>
<path style="fill:#a2b6b5; stroke:none;" d="M253 430L254 431L253 430z"/>
<path style="fill:#5e8584; stroke:none;" d="M271 430L272 431L271 430z"/>
<path style="fill:#a2b6b5; stroke:none;" d="M272 430L273 431L272 430M324.667 430.333L325.333 430.667L324.667 430.333z"/>
<path style="fill:#5e8584; stroke:none;" d="M326 430L326 431L329 431L326 430z"/>
<path style="fill:#a2b6b5; stroke:none;" d="M445 430L447 432L445 430z"/>
<path style="fill:#5e8584; stroke:none;" d="M35 431L36 432L35 431M145.667 431.333L146.333 431.667L145.667 431.333z"/>
<path style="fill:#a2b6b5; stroke:none;" d="M147 431L147 432L150 432L147 431M210 431L211 432L210 431z"/>
<path style="fill:#5e8584; stroke:none;" d="M211 431L212 432L211 431M253 431L254 432L253 431M268 431L269 432L268 431z"/>
<path style="fill:#a2b6b5; stroke:none;" d="M269.667 431.333L270.333 431.667L269.667 431.333M329 431L329 432L332 432L329 431z"/>
<path style="fill:#5e8584; stroke:none;" d="M332 431L333 432L332 431M445 431L446 432L445 431M140.667 432.333L141.333 432.667L140.667 432.333z"/>
<path style="fill:#a2b6b5; stroke:none;" d="M142 432L143 433L142 432M212 432L213 433L212 432z"/>
<path style="fill:#5e8584; stroke:none;" d="M213 432L214 433L213 432z"/>
<path style="fill:#a2b6b5; stroke:none;" d="M252 432L253 433L252 432z"/>
<path style="fill:#5e8584; stroke:none;" d="M266 432L267 433L266 432z"/>
<path style="fill:#a2b6b5; stroke:none;" d="M267 432L268 433L267 432M335.667 432.333L336.333 432.667L335.667 432.333z"/>
<path style="fill:#5e8584; stroke:none;" d="M337 432L338 433L337 432M446 432L447 433L446 432z"/>
<path style="fill:#a2b6b5; stroke:none;" d="M33 433L32 435L33 433z"/>
<path style="fill:#5e8584; stroke:none;" d="M133 433L133 434L136 434L133 433z"/>
<path style="fill:#a2b6b5; stroke:none;" d="M136.667 433.333L137.333 433.667L136.667 433.333M214 433L215 434L214 433z"/>
<path style="fill:#5e8584; stroke:none;" d="M215 433L216 434L215 433M252.333 433.667L252.667 434.333L252.333 433.667z"/>
<path style="fill:#a2b6b5; stroke:none;" d="M265 433L266 434L265 433M340 433L340 434L343 434L340 433z"/>
<path style="fill:#5e8584; stroke:none;" d="M343.667 433.333L344.333 433.667L343.667 433.333z"/>
<path style="fill:#a2b6b5; stroke:none;" d="M447 433L449 435L447 433z"/>
<path style="fill:#5e8584; stroke:none;" d="M33 434L34 435L33 434M129 434L130 435L129 434z"/>
<path style="fill:#a2b6b5; stroke:none;" d="M130 434L130 435L133 435L130 434M216 434L217 435L216 434z"/>
<path style="fill:#5e8584; stroke:none;" d="M263 434L264 435L263 434z"/>
<path style="fill:#a2b6b5; stroke:none;" d="M264 434L265 435L264 434M345 434L345 435L348 435L345 434z"/>
<path style="fill:#5e8584; stroke:none;" d="M348.667 434.333L349.333 434.667L348.667 434.333M447 434L448 435L447 434M32 435L33 436L32 435M123.667 435.333L124.333 435.667L123.667 435.333z"/>
<path style="fill:#a2b6b5; stroke:none;" d="M125.667 435.333L126.333 435.667L125.667 435.333M217 435L218 436L217 435z"/>
<path style="fill:#5e8584; stroke:none;" d="M218 435L219 436L218 435z"/>
<path style="fill:#a2b6b5; stroke:none;" d="M251 435L252 436L251 435M262 435L263 436L262 435M352 435L353 436L352 435z"/>
<path style="fill:#5e8584; stroke:none;" d="M353 435L353 436L356 436L353 435M448 435L449 436L448 435z"/>
<path style="fill:#a2b6b5; stroke:none;" d="M31 436L30 438L31 436z"/>
<path style="fill:#5e8584; stroke:none;" d="M117.667 436.333L118.333 436.667L117.667 436.333z"/>
<path style="fill:#a2b6b5; stroke:none;" d="M119 436L119 437L122 437L119 436M219 436L220 437L219 436z"/>
<path style="fill:#5e8584; stroke:none;" d="M251.333 436.667L251.667 437.333L251.333 436.667M260 436L259 438L260 436z"/>
<path style="fill:#a2b6b5; stroke:none;" d="M261 436L262 437L261 436M356 436L356 437L359 437L356 436z"/>
<path style="fill:#5e8584; stroke:none;" d="M359 436L359 437L362 437L359 436z"/>
<path style="fill:#a2b6b5; stroke:none;" d="M449 436L450 437L449 436z"/>
<path style="fill:#5e8584; stroke:none;" d="M31 437L32 438L31 437M113 437L114 438L113 437z"/>
<path style="fill:#a2b6b5; stroke:none;" d="M114 437L114 438L117 438L114 437M220 437L221 438L220 437M260 437L261 438L260 437M362 437L362 438L365 438L362 437z"/>
<path style="fill:#5e8584; stroke:none;" d="M365 437L366 438L365 437z"/>
<path style="fill:#a2b6b5; stroke:none;" d="M450 437L452 439L450 437z"/>
<path style="fill:#5e8584; stroke:none;" d="M30 438L31 439L30 438M106 438L106 439L109 439L106 438z"/>
<path style="fill:#a2b6b5; stroke:none;" d="M109.667 438.333L110.333 438.667L109.667 438.333M221 438L223 440L221 438z"/>
<path style="fill:#5e8584; stroke:none;" d="M222 438L223 439L222 438z"/>
<path style="fill:#a2b6b5; stroke:none;" d="M250.333 438.667L250.667 439.333L250.333 438.667z"/>
<path style="fill:#5e8584; stroke:none;" d="M258 438L259 439L258 438z"/>
<path style="fill:#a2b6b5; stroke:none;" d="M368.667 438.333L369.333 438.667L368.667 438.333z"/>
<path style="fill:#5e8584; stroke:none;" d="M370.667 438.333L371.333 438.667L370.667 438.333M450 438L451 439L450 438z"/>
<path style="fill:#a2b6b5; stroke:none;" d="M29 439L30 440L29 439z"/>
<path style="fill:#5e8584; stroke:none;" d="M101.667 439.333L102.333 439.667L101.667 439.333z"/>
<path style="fill:#a2b6b5; stroke:none;" d="M103 439L103 440L106 440L103 439z"/>
<path style="fill:#5e8584; stroke:none;" d="M257 439L258 440L257 439z"/>
<path style="fill:#a2b6b5; stroke:none;" d="M373 439L373 440L376 440L373 439z"/>
<path style="fill:#5e8584; stroke:none;" d="M376.667 439.333L377.333 439.667L376.667 439.333M451 439L452 440L451 439z"/>
<path style="fill:#a2b6b5; stroke:none;" d="M28 440L27 443L28 443L28 440z"/>
<path style="fill:#5e8584; stroke:none;" d="M97 440L98 441L97 440z"/>
<path style="fill:#a2b6b5; stroke:none;" d="M98.6667 440.333L99.3333 440.667L98.6667 440.333M223 440L224 441L223 440z"/>
<path style="fill:#5e8584; stroke:none;" d="M250.333 440.667L250.667 441.333L250.333 440.667M256 440L254 443L256 440z"/>
<path style="fill:#a2b6b5; stroke:none;" d="M379.667 440.333L380.333 440.667L379.667 440.333z"/>
<path style="fill:#5e8584; stroke:none;" d="M381.667 440.333L382.333 440.667L381.667 440.333z"/>
<path style="fill:#a2b6b5; stroke:none;" d="M452 440L454 442L452 440z"/>
<path style="fill:#5e8584; stroke:none;" d="M28 441L29 442L28 441M90.6667 441.333L91.3333 441.667L90.6667 441.333z"/>
<path style="fill:#a2b6b5; stroke:none;" d="M92.6667 441.333L93.3333 441.667L92.6667 441.333M224 441L225 442L224 441M249 441L249 444L250 444L249 441M256 441L257 442L256 441M385.667 441.333L386.333 441.667L385.667 441.333z"/>
<path style="fill:#5e8584; stroke:none;" d="M387 441L387 442L390 442L387 441M452 441L453 442L452 441M85 442L86 443L85 442z"/>
<path style="fill:#a2b6b5; stroke:none;" d="M86 442L86 443L90 443L86 442M225 442L226 443L225 442M255 442L256 443L255 442M390 442L390 443L393 443L390 442z"/>
<path style="fill:#5e8584; stroke:none;" d="M393.667 442.333L394.333 442.667L393.667 442.333M453 442L454 443L453 442z"/>
<path style="fill:#a2b6b5; stroke:none;" d="M26 443L25 445L26 443z"/>
<path style="fill:#5e8584; stroke:none;" d="M80.6667 443.333L81.3333 443.667L80.6667 443.333z"/>
<path style="fill:#a2b6b5; stroke:none;" d="M82 443L83 444L82 443z"/>
<path style="fill:#5e8584; stroke:none;" d="M226 443L228 445L226 443z"/>
<path style="fill:#a2b6b5; stroke:none;" d="M254 443L255 444L254 443M396.667 443.333L397.333 443.667L396.667 443.333z"/>
<path style="fill:#5e8584; stroke:none;" d="M398 443L399 444L398 443z"/>
<path style="fill:#a2b6b5; stroke:none;" d="M454 443L456 445L454 443z"/>
<path style="fill:#5e8584; stroke:none;" d="M26 444L27 445L26 444M73 444L73 445L76 445L73 444z"/>
<path style="fill:#a2b6b5; stroke:none;" d="M76.6667 444.333L77.3333 444.667L76.6667 444.333M226 444L227 445L226 444z"/>
<path style="fill:#5e8584; stroke:none;" d="M249 444L249 449L250 449L249 444M253 444L252 446L253 444z"/>
<path style="fill:#a2b6b5; stroke:none;" d="M402.667 444.333L403.333 444.667L402.667 444.333z"/>
<path style="fill:#5e8584; stroke:none;" d="M404 444L404 445L407 445L404 444M454 444L455 445L454 444M25 445L26 446L25 445M69 445L70 446L69 445z"/>
<path style="fill:#a2b6b5; stroke:none;" d="M70 445L70 446L73 446L70 445M227 445L228 446L227 445M253 445L254 446L253 445M407 445L407 446L410 446L407 445z"/>
<path style="fill:#5e8584; stroke:none;" d="M410.667 445.333L411.333 445.667L410.667 445.333M455 445L456 446L455 445z"/>
<path style="fill:#a2b6b5; stroke:none;" d="M24 446L23 448L24 446z"/>
<path style="fill:#5e8584; stroke:none;" d="M64 446L65 447L64 446z"/>
<path style="fill:#a2b6b5; stroke:none;" d="M65.6667 446.333L66.3333 446.667L65.6667 446.333z"/>
<path style="fill:#5e8584; stroke:none;" d="M228 446L229 447L228 446z"/>
<path style="fill:#a2b6b5; stroke:none;" d="M252 446L253 447L252 446M413.667 446.333L414.333 446.667L413.667 446.333z"/>
<path style="fill:#5e8584; stroke:none;" d="M415 446L416 447L415 446z"/>
<path style="fill:#a2b6b5; stroke:none;" d="M456 446L458 448L456 446z"/>
<path style="fill:#5e8584; stroke:none;" d="M24 447L25 448L24 447M57 447L57 448L60 448L57 447z"/>
<path style="fill:#a2b6b5; stroke:none;" d="M60.6667 447.333L61.3333 447.667L60.6667 447.333M228 447L229 448L228 447M248 447C248.209 449.858 248.174 451 251 451L251 450L248 447z"/>
<path style="fill:#5e8584; stroke:none;" d="M251 447L252 448L251 447z"/>
<path style="fill:#a2b6b5; stroke:none;" d="M418 447L418 448L421 448L418 447z"/>
<path style="fill:#5e8584; stroke:none;" d="M421.667 447.333L422.333 447.667L421.667 447.333M456 447L457 448L456 447M23 448L24 449L23 448M52.6667 448.333L53.3333 448.667L52.6667 448.333z"/>
<path style="fill:#a2b6b5; stroke:none;" d="M54 448L54 449L57 449L54 448z"/>
<path style="fill:#5e8584; stroke:none;" d="M229 448L230 449L229 448z"/>
<path style="fill:#a2b6b5; stroke:none;" d="M251 448L252 449L251 448M423 448L423 449L426 449L423 448z"/>
<path style="fill:#5e8584; stroke:none;" d="M426.667 448.333L427.333 448.667L426.667 448.333M457 448L458 449L457 448z"/>
<path style="fill:#a2b6b5; stroke:none;" d="M22 449L23 450L22 449z"/>
<path style="fill:#5e8584; stroke:none;" d="M47.6667 449.333L48.3333 449.667L47.6667 449.333z"/>
<path style="fill:#a2b6b5; stroke:none;" d="M49.6667 449.333L50.3333 449.667L49.6667 449.333M229 449L230 450L229 449z"/>
<path style="fill:#5e8584; stroke:none;" d="M250 449L251 450L250 449z"/>
<path style="fill:#a2b6b5; stroke:none;" d="M430.667 449.333L431.333 449.667L430.667 449.333z"/>
<path style="fill:#5e8584; stroke:none;" d="M432 449L433 450L432 449M458 449L459 450L458 449z"/>
<path style="fill:#a2b6b5; stroke:none;" d="M21 450L22 451L21 450z"/>
<path style="fill:#5e8584; stroke:none;" d="M41.6667 450.333L42.3333 450.667L41.6667 450.333z"/>
<path style="fill:#a2b6b5; stroke:none;" d="M43 450L43 451L46 451L43 450z"/>
<path style="fill:#5e8584; stroke:none;" d="M249 450L250 451L249 450z"/>
<path style="fill:#a2b6b5; stroke:none;" d="M435.667 450.333L436.333 450.667L435.667 450.333z"/>
<path style="fill:#5e8584; stroke:none;" d="M437 450L437 451L440 451L437 450z"/>
<path style="fill:#a2b6b5; stroke:none;" d="M459 450L440 451L440 452L459 450M22 451L22 452L41 452L22 451z"/>
</svg>
